<?xml version="1.0" encoding="UTF-8" standalone="no"?>
<!-- Created with Inkscape (http://www.inkscape.org/) -->

<svg
   width="200mm"
   height="200mm"
   viewBox="0 0 200 200"
   version="1.1"
   id="svg5"
   xml:space="preserve"
   inkscape:export-filename="Sunsetlogo.png"
   inkscape:export-xdpi="96"
   inkscape:export-ydpi="96"
   inkscape:version="1.2 (dc2aedaf03, 2022-05-15)"
   sodipodi:docname="sunsetlogo.svg"
   xmlns:inkscape="http://www.inkscape.org/namespaces/inkscape"
   xmlns:sodipodi="http://sodipodi.sourceforge.net/DTD/sodipodi-0.dtd"
   xmlns="http://www.w3.org/2000/svg"
   xmlns:svg="http://www.w3.org/2000/svg"><sodipodi:namedview
     id="namedview7"
     pagecolor="#ffffff"
     bordercolor="#000000"
     borderopacity="0.25"
     inkscape:showpageshadow="2"
     inkscape:pageopacity="0.0"
     inkscape:pagecheckerboard="0"
     inkscape:deskcolor="#d1d1d1"
     inkscape:document-units="mm"
     showgrid="false"
     inkscape:zoom="0.914906"
     inkscape:cx="397.30857"
     inkscape:cy="561.25984"
     inkscape:window-width="2560"
     inkscape:window-height="1351"
     inkscape:window-x="-9"
     inkscape:window-y="-9"
     inkscape:window-maximized="1"
     inkscape:current-layer="layer1" /><defs
     id="defs2" /><g
     inkscape:label="Lag 1"
     inkscape:groupmode="layer"
     id="layer1"><g
       id="g41"
       transform="matrix(4.9063673,0,0,4.927918,1.93842,1.6490696)"><path
         fill="#ffd800"
         d="M 25.716,0.8288 C 23.905,0.2888 21.986,0 19.999,0 8.953,0 0,8.9536 0,19.999 c 0,4.5064 1.4912,8.664 4.0056,12.009 0.0184,0.016 0.0376,0.0304 0.0568,0.048 l 5.9264,4.9408 26.121,-28.778 c 0.0712,0.0688 0.1272,0.1392 0.1848,0.2096 -2.5536,-3.592 -6.2536,-6.312 -10.578,-7.6 z"
         id="path26" /><path
         fill="#006850"
         d="m 9.5104,23.003 h 0.7928 c 1.8896,0 2.588,-0.4856 2.984,-2.3824 l 0.773,-3.609 h -1.7648 l -0.9552,4.483 H 9.121 l 0.9552,-4.483 h -1.764 l -0.772,3.609 c -0.404,1.896 0.08,2.3824 1.9704,2.3824 z m -2.5656,-1.9 C 7.2088,19.839 6.724,19.28 5.2976,19.28 h -1.632 l 0.1696,-0.7792 h 3.2856 l 0.316,-1.4704 H 4.4376 c -1.4328,0 -2.1528,0.5952 -2.4176,1.852 -0.272,1.25 0.1984,1.837 1.632,1.837 h 1.6464 l -0.1688,0.794 H 1.652 l -0.316,1.47 h 3.176 c 1.4176,0 2.168,-0.6248 2.4328,-1.8808 z m 32.393,-6.217 c -0.532,-2.018 -1.372,-3.911 -2.465,-5.6252 -0.086,-0.128 -0.159,-0.2424 -0.227,-0.348 -0.089,-0.1336 -0.181,-0.2664 -0.273,-0.3976 -0.079,-0.1024 -0.162,-0.1992 -0.263,-0.2968 -1.777,-1.5552 -4.438,-2.024 -7.092,-1.2568 -1.8032,0.5504 -3.6112,1.6536 -5.14,3.3504 -1.4536,1.6528 -2.6448,3.8776 -3.3184,6.7184 H 19.089 l -0.896,4.2048 -0.7,-4.205 h -2.69 l -1.2712,5.9536 h 1.6608 l 0.8968,-4.1824 0.6984,4.1824 h 2.7864 c -0.6904,2.8192 -1.9168,5.0424 -3.4136,6.7016 -1.5336,1.7432 -3.36,2.8488 -5.192,3.368 -2.605,0.784 -5.193,0.418 -6.9066,-0.999 -0.02,-0.0176 -0.04,-0.0336 -0.0592,-0.0504 3.648,4.854 9.4548,7.995 15.996,7.995 4.0664,0 7.8504,-1.2144 11.007,-3.2992 2.3312,-1.54 4.3208,-3.5544 5.832,-5.9064 2,-3.1144 3.16,-6.8184 3.16,-10.795 0,-1.7672 -0.2296,-3.4816 -0.66,-5.1136 z"
         id="path28" /><path
         fill="#ffffff"
         d="m 23.75,17.025 c -1.4336,0 -2.1608,0.5936 -2.4256,1.8504 -0.272,1.2496 0.2168,1.8496 1.6504,1.8496 h 1.6248 l -0.1504,0.8 h -3.4744 l -0.3256,1.4504 h 3.1752 c 1.4184,0 2.1608,-0.6192 2.4248,-1.8752 0.2656,-1.2648 -0.2232,-1.8248 -1.6496,-1.8248 H 22.975 l 0.1756,-0.775 h 3.2744 l 0.3256,-1.4752 h -3 z m 3.9744,0 -1.2752,5.9504 h 4.7504 l 0.3248,-1.4504 h -3 l 0.1752,-0.8 h 2.8752 l 0.3,-1.4496 H 29 l 0.1748,-0.775 H 32.15 l 0.3248,-1.4752 h -4.75 z m 5.2504,0 -0.3,1.4752 h 1.8496 l -0.9496,4.4752 H 35.35 l 0.95,-4.475 h 1.8504 l 0.3248,-1.4752 h -5.5 z m 3.8744,5 c -0.256,0 -0.4744,0.1824 -0.4744,0.4752 0,0.2928 0.2184,0.4752 0.4744,0.4752 0.2592,0 0.5008,-0.1824 0.5008,-0.4752 0,-0.2936 -0.2416,-0.4752 -0.5008,-0.4752 z m 0,0.1 c 0.2112,0 0.3752,0.1624 0.3752,0.3752 0,0.2128 -0.164,0.4 -0.3752,0.4 -0.208,0 -0.3744,-0.1872 -0.3744,-0.4 0,-0.2128 0.1664,-0.3752 0.3744,-0.3752 z m -0.1744,0.1 v 0.5504 h 0.1 v -0.2248 h 0.0496 l 0.1504,0.2248 h 0.1 l -0.15,-0.225 c 0.0808,-0.008 0.1504,-0.0536 0.1504,-0.1504 0,-0.1176 -0.068,-0.1752 -0.2,-0.1752 h -0.2 z m 0.1,0.1 h 0.0744 c 0.0496,0 0.1256,-0.0128 0.1256,0.0504 0,0.0704 -0.0424,0.1 -0.1,0.1 h -0.1 V 22.3252 Z M 20.4498,24 19.9754,26.2248 h 1.3752 c 0.488,0 0.7536,-0.2136 0.8496,-0.6744 0.0528,-0.2336 0.0176,-0.4056 -0.1504,-0.5256 0.2176,-0.132 0.3088,-0.268 0.3504,-0.4744 0.076,-0.372 -0.083,-0.551 -0.526,-0.551 h -1.4256 z m 6.3504,0 -0.4752,2.2248 h 0.6 l 0.475,-2.225 h -0.6 z m 9.6,0 -0.1,0.5248 h -0.4 c -0.5552,0 -0.7848,0.1528 -0.9,0.7 l -0.075,0.275 c -0.1176,0.5464 0.0704,0.7248 0.6256,0.7248 h 1 l 0.474,-2.225 H 36.4 Z m -13,0.5 c -0.556,0 -0.7848,0.1776 -0.9,0.7248 l -0.0752,0.3 c -0.1184,0.5464 0.0696,0.7 0.6248,0.7 h 0.2504 c 0.5552,0 0.8088,-0.1536 0.9248,-0.7 l 0.0504,-0.3 c 0.118,-0.547 -0.041,-0.725 -0.6,-0.725 h -0.2752 z m 4.9,0 c -0.556,0 -0.7824,0.1536 -0.9,0.7 l -0.0752,0.3 c -0.1176,0.5464 0.0448,0.7248 0.6,0.7248 h 0.9248 l 0.1008,-0.4744 h -1.1008 l 0.0256,-0.1752 h 1.1248 l 0.1,-0.3504 c 0.114,-0.548 -0.071,-0.726 -0.626,-0.726 H 28.299 Z m -3.6248,0.0248 -0.225,0.975 c -0.1168,0.5464 0.0712,0.7248 0.6256,0.7248 h 0.9744 l 0.3752,-1.7 h -0.6 l -0.2744,1.2256 h -0.526 l 0.2504,-1.2256 h -0.6 z m 4.6,0 0.2248,1.7 h 0.8248 l 0.9752,-1.7 h -0.6 l -0.6752,1.2256 -0.1,-1.2256 z m 2.1744,0 -0.0992,0.4504 h 0.9744 l -0.0496,0.1752 h -0.5752 c -0.3376,0 -0.5784,0.1504 -0.6504,0.4992 v 0.051 c -0.0736,0.3464 0.0736,0.5248 0.4,0.5248 h 1.2 l 0.251,-1.125 c 0.0904,-0.4128 -0.0624,-0.5752 -0.4752,-0.5752 h -0.9752 z m 1.8504,0 -0.3752,1.7 h 0.6 l 0.2752,-1.2496 h 0.4496 l -0.1248,0.5496 h 0.6256 l 0.075,-0.425 C 34.916,24.687 34.7608,24.5246 34.3512,24.5246 h -1.0504 z m -12.3,0.0256 h 0.7504 l -0.0752,0.3248 h -0.749 l 0.0752,-0.3248 z m 7.0248,0.4 h 0.5504 l -0.0504,0.2248 h -0.5496 z m -4.8744,0.0248 h 0.5744 l -0.1744,0.7752 h -0.5752 z m 12.499,0 H 36.2 l -0.1752,0.7752 h -0.5496 z m -14.824,0.374 h 0.7752 l -0.0752,0.3248 h -0.7744 z m 10.825,0.2248 h 0.5504 l -0.049,0.225 h -0.526 l 0.0248,-0.2248 z"
         id="path30" /></g></g></svg>
